<svg width="240" height="240" viewBox="0 0 240 240" fill="none" xmlns="http://www.w3.org/2000/svg" role="img" aria-labelledby="title desc">
  <title id="title">Ajo Menesteres</title>
  <desc id="desc">Ilustración lineal artesanal de una cabeza de ajo.</desc>
  <g stroke="currentColor" stroke-width="5" stroke-linecap="round" stroke-linejoin="round">
    <path d="M119 65 C142 78 169 99 176 137 C183 176 157 204 121 204 C84 204 57 177 65 137 C72 101 96 78 119 65Z"/>
    <path d="M119 65 C111 51 112 39 123 28 C129 42 129 54 119 65Z"/>
    <path d="M93 91 C78 119 77 163 104 199" opacity="0.65"/>
    <path d="M119 78 C105 115 105 168 121 204" opacity="0.65"/>
    <path d="M146 91 C161 119 162 163 135 199" opacity="0.65"/>
    <path d="M67 72 C58 67 50 59 47 49" opacity="0.55"/>
    <path d="M180 73 C190 67 198 58 202 47" opacity="0.55"/>
  </g>
</svg>